<?xml version="1.0" encoding="utf-8"?>
<!-- Generator: Adobe Illustrator 27.6.1, SVG Export Plug-In . SVG Version: 6.00 Build 0)  -->
<svg version="1.1" id="Layer_1" xmlns:bx="https://boxy-svg.com"
	 xmlns="http://www.w3.org/2000/svg" xmlns:xlink="http://www.w3.org/1999/xlink" x="0px" y="0px" viewBox="0 0 58 58"
	 style="enable-background:new 0 0 58 58;" xml:space="preserve">
<style type="text/css">
	.st0{fill:#FFFFFF;}
</style>
<g transform="">
	<rect y="0" class="st0" width="58" height="58"/>
	<g id="A_-_111_x2C__user_x2C__man_x2C__mind_programming_x2C__art">
		<g>
			<polygon points="28.1,29.3 27.5,31.5 33.5,31.5 33.5,25.4 31.5,25.9 28.8,26.6 			"/>
			<path d="M27.4,29.1l0.8-2.9c0-0.1,0.1-0.2,0.3-0.2l2.9-0.7l2.2-0.6v-5.6v-2.9c-0.7-0.1-1.5-0.2-2.2-0.3v-4.3l1.3,1
				c0.1,0,0.1,0.1,0.2,0.1c0.1,0,0.2,0,0.3-0.1c0.1-0.2,0.1-0.4-0.1-0.5l-1.9-1.4c0,0,0,0,0,0c0,0,0,0,0,0c0,0,0,0,0,0c0,0,0,0,0,0
				c0,0,0,0,0,0c0,0,0,0,0,0c0,0,0,0,0,0c0,0,0,0,0,0c0,0,0,0,0,0c0,0,0,0,0,0c0,0,0,0,0,0s0,0,0,0c0,0,0,0,0,0c0,0,0,0,0,0
				c0,0,0,0,0,0c0,0,0,0,0,0c0,0,0,0,0,0c0,0,0,0,0,0c0,0,0,0,0,0c0,0,0,0,0,0c0,0,0,0,0,0c0,0,0,0,0,0l-1.9,1.4
				c-0.2,0.1-0.2,0.3-0.1,0.5c0.1,0.1,0.2,0.1,0.3,0.1c0.1,0,0.1,0,0.2-0.1l1.3-1v8c0,0.2,0.2,0.4,0.4,0.4h0c-0.2,0-0.4-0.2-0.4-0.4
				v-3.7c-3.2,0.1-6.3,1.3-8.6,3.6l-3-3l1.6-0.2c0.2,0,0.3-0.2,0.3-0.4c0-0.2-0.2-0.3-0.4-0.3l-2.3,0.3c0,0,0,0,0,0c0,0,0,0,0,0
				c0,0,0,0,0,0c0,0,0,0,0,0c0,0,0,0,0,0c0,0,0,0,0,0c0,0,0,0,0,0c0,0,0,0,0,0c0,0,0,0,0,0c0,0,0,0,0,0c0,0,0,0,0,0c0,0,0,0,0,0
				c0,0,0,0,0,0c0,0,0,0,0,0c0,0,0,0,0,0c0,0,0,0,0,0c0,0,0,0,0,0c0,0,0,0,0,0c0,0,0,0,0,0c0,0,0,0,0,0c0,0,0,0,0,0c0,0,0,0,0,0
				l-0.3,2.3c0,0.2,0.1,0.4,0.3,0.4c0,0,0,0,0,0c0.2,0,0.3-0.1,0.3-0.3l0.2-1.6l5.6,5.6c0.1,0.1,0.2,0.1,0.2,0.1h0
				c-0.1,0-0.2,0-0.2-0.1L21.5,20c-2.2,2.4-3.5,5.4-3.6,8.6h-4.3l1-1.3c0.1-0.2,0.1-0.4-0.1-0.5c-0.2-0.1-0.4-0.1-0.5,0.1l-1.4,1.9
				c0,0,0,0,0,0c0,0,0,0,0,0c0,0,0,0,0,0c0,0,0,0,0,0c0,0,0,0,0,0c0,0,0,0,0,0c0,0,0,0,0,0c0,0,0,0,0,0c0,0,0,0,0,0c0,0,0,0,0,0
				c0,0,0,0,0,0c0,0,0,0,0,0c0,0,0,0,0,0c0,0,0,0,0,0c0,0,0,0,0,0c0,0,0,0,0,0c0,0,0,0,0,0c0,0,0,0,0,0c0,0,0,0,0,0c0,0,0,0,0,0
				c0,0,0,0,0,0c0,0,0,0,0,0l1.4,1.9c0.1,0.1,0.2,0.1,0.3,0.1c0.1,0,0.1,0,0.2-0.1c0.2-0.1,0.2-0.3,0.1-0.5l-1-1.3h4.3
				c0,0.7,0.1,1.5,0.3,2.2h2.7h5.8L27.4,29.1z"/>
			<path d="M34.2,19.5v5.4v6.9c0,0.2-0.2,0.4-0.4,0.4H27h-5.7v20.1h12.6l-10-7.5c-0.2-0.1-0.2-0.3-0.1-0.5c0.1-0.2,0.3-0.2,0.5-0.1
				l10.5,7.8v-8.8c0-0.2,0.2-0.4,0.4-0.4h4.6v-7c0-0.2,0.2-0.4,0.4-0.4h2.3v-5.9C42.4,24.9,39,20.6,34.2,19.5z M30.3,46.8
				c-0.1,0.1-0.2,0.1-0.3,0.1c-0.1,0-0.1,0-0.2-0.1l-6.1-4.6c-0.2-0.1-0.2-0.3-0.1-0.5c0.1-0.2,0.3-0.2,0.5-0.1l6.1,4.6
				C30.4,46.4,30.4,46.7,30.3,46.8z M37.5,34.3c-0.8,0-1.4-0.6-1.4-1.4c0-0.8,0.6-1.4,1.4-1.4c0.8,0,1.4,0.6,1.4,1.4
				C38.9,33.7,38.3,34.3,37.5,34.3z"/>
			<path d="M37.5,32.2c-0.4,0-0.7,0.3-0.7,0.7c0,0.4,0.3,0.7,0.7,0.7c0.4,0,0.7-0.3,0.7-0.7C38.2,32.5,37.9,32.2,37.5,32.2z"/>
			<path d="M9.7,27.4c-0.8,0-1.5,0.7-1.5,1.5c0,0.8,0.7,1.5,1.5,1.5c0.8,0,1.5-0.7,1.5-1.5C11.2,28.1,10.5,27.4,9.7,27.4z M9.7,29.7
				L9.7,29.7c0.4,0,0.8-0.4,0.8-0.8c0-0.4-0.4-0.8-0.8-0.8h0c0.4,0,0.8,0.4,0.8,0.8C10.5,29.4,10.2,29.7,9.7,29.7z"/>
			<path d="M15.9,15.4c0.4,0,0.8-0.2,1.1-0.4c0.6-0.6,0.6-1.5,0-2.1c-0.3-0.3-0.7-0.4-1.1-0.4c-0.4,0-0.8,0.2-1.1,0.4
				c-0.3,0.3-0.4,0.7-0.4,1.1c0,0.4,0.2,0.8,0.4,1.1C15.1,15.3,15.5,15.4,15.9,15.4z M16.5,13.3c0.3,0.3,0.3,0.8,0,1.1
				c-0.2,0.2-0.4,0.2-0.6,0.2h0c0.2,0,0.4-0.1,0.6-0.2C16.8,14.2,16.8,13.7,16.5,13.3c-0.2-0.2-0.4-0.2-0.6-0.2h0
				C16.1,13.1,16.3,13.2,16.5,13.3z"/>
			<path d="M30.9,9.2c0.8,0,1.5-0.7,1.5-1.5s-0.7-1.5-1.5-1.5s-1.5,0.7-1.5,1.5C29.4,8.5,30.1,9.2,30.9,9.2z M31.7,7.7
				c0,0.4-0.4,0.8-0.8,0.8h0C31.4,8.5,31.7,8.1,31.7,7.7c0-0.4-0.4-0.8-0.8-0.8h0C31.4,6.9,31.7,7.3,31.7,7.7z"/>
		</g>
	</g>
</g>
</svg>
