<?xml version="1.0" encoding="utf-8"?>
<!-- Generator: Adobe Illustrator 27.6.1, SVG Export Plug-In . SVG Version: 6.00 Build 0)  -->
<svg version="1.1" id="Layer_1" xmlns:bx="https://boxy-svg.com"
	 xmlns="http://www.w3.org/2000/svg" xmlns:xlink="http://www.w3.org/1999/xlink" x="0px" y="0px" viewBox="0 0 58 58"
	 style="enable-background:new 0 0 58 58;" xml:space="preserve">
<style type="text/css">
	.st0{fill:#191919;}
	.st1{fill:#F7F7F7;}
</style>
<g transform="">
	<rect y="0" class="st0" width="58" height="58"/>
	<g id="A_-_111_x2C__user_x2C__man_x2C__mind_programming_x2C__art">
		<g>
			<polygon class="st1" points="29.8,29.3 29.2,31.5 35.2,31.5 35.2,25.4 33.2,25.9 30.5,26.6 			"/>
			<path class="st1" d="M29.1,29.1l0.8-2.9c0-0.1,0.1-0.2,0.3-0.2l2.9-0.7l2.2-0.6v-5.6v-2.9c-0.7-0.1-1.5-0.2-2.2-0.3v-4.3l1.3,1
				c0.1,0,0.1,0.1,0.2,0.1c0.1,0,0.2,0,0.3-0.1c0.1-0.2,0.1-0.4-0.1-0.5l-1.9-1.4c0,0,0,0,0,0c0,0,0,0,0,0c0,0,0,0,0,0c0,0,0,0,0,0
				c0,0,0,0,0,0c0,0,0,0,0,0c0,0,0,0,0,0c0,0,0,0,0,0c0,0,0,0,0,0c0,0,0,0,0,0c0,0,0,0,0,0c0,0,0,0,0,0c0,0,0,0,0,0c0,0,0,0,0,0
				c0,0,0,0,0,0c0,0,0,0,0,0c0,0,0,0,0,0c0,0,0,0,0,0c0,0,0,0,0,0c0,0,0,0,0,0c0,0,0,0,0,0c0,0,0,0,0,0l-1.9,1.4
				c-0.2,0.1-0.2,0.3-0.1,0.5c0.1,0.1,0.2,0.1,0.3,0.1c0.1,0,0.1,0,0.2-0.1l1.3-1v8c0,0.2,0.2,0.4,0.4,0.4h0c-0.2,0-0.4-0.2-0.4-0.4
				v-3.7c-3.2,0.1-6.3,1.3-8.6,3.6l-3-3l1.6-0.2c0.2,0,0.3-0.2,0.3-0.4c0-0.2-0.2-0.3-0.4-0.3l-2.3,0.3c0,0,0,0,0,0c0,0,0,0,0,0
				c0,0,0,0,0,0c0,0,0,0,0,0c0,0,0,0,0,0c0,0,0,0,0,0c0,0,0,0,0,0c0,0,0,0,0,0c0,0,0,0,0,0c0,0,0,0,0,0c0,0,0,0,0,0c0,0,0,0,0,0
				c0,0,0,0,0,0c0,0,0,0,0,0c0,0,0,0,0,0c0,0,0,0,0,0c0,0,0,0,0,0c0,0,0,0,0,0c0,0,0,0,0,0c0,0,0,0,0,0c0,0,0,0,0,0c0,0,0,0,0,0
				l-0.3,2.3c0,0.2,0.1,0.4,0.3,0.4c0,0,0,0,0,0c0.2,0,0.3-0.1,0.3-0.3l0.2-1.6l5.6,5.6c0.1,0.1,0.2,0.1,0.2,0.1h0
				c-0.1,0-0.2,0-0.2-0.1L23.2,20c-2.2,2.4-3.5,5.4-3.6,8.6h-4.3l1-1.3c0.1-0.2,0.1-0.4-0.1-0.5c-0.2-0.1-0.4-0.1-0.5,0.1l-1.4,1.9
				c0,0,0,0,0,0c0,0,0,0,0,0c0,0,0,0,0,0c0,0,0,0,0,0c0,0,0,0,0,0c0,0,0,0,0,0c0,0,0,0,0,0c0,0,0,0,0,0c0,0,0,0,0,0c0,0,0,0,0,0
				c0,0,0,0,0,0c0,0,0,0,0,0c0,0,0,0,0,0c0,0,0,0,0,0c0,0,0,0,0,0c0,0,0,0,0,0c0,0,0,0,0,0c0,0,0,0,0,0c0,0,0,0,0,0c0,0,0,0,0,0
				c0,0,0,0,0,0c0,0,0,0,0,0l1.4,1.9c0.1,0.1,0.2,0.1,0.3,0.1c0.1,0,0.1,0,0.2-0.1c0.2-0.1,0.2-0.3,0.1-0.5l-1-1.3h4.3
				c0,0.7,0.1,1.5,0.3,2.2h2.7h5.8L29.1,29.1z"/>
			<path class="st1" d="M35.9,19.5v5.4v6.9c0,0.2-0.2,0.4-0.4,0.4h-6.9H23v20.1h12.6l-10-7.5c-0.2-0.1-0.2-0.3-0.1-0.5
				c0.1-0.2,0.3-0.2,0.5-0.1l10.5,7.8v-8.8c0-0.2,0.2-0.4,0.4-0.4h4.6v-7c0-0.2,0.2-0.4,0.4-0.4h2.3v-5.9
				C44.1,24.9,40.7,20.6,35.9,19.5z M32,46.8c-0.1,0.1-0.2,0.1-0.3,0.1c-0.1,0-0.1,0-0.2-0.1l-6.1-4.6c-0.2-0.1-0.2-0.3-0.1-0.5
				c0.1-0.2,0.3-0.2,0.5-0.1l6.1,4.6C32.1,46.4,32.1,46.7,32,46.8z M39.2,34.3c-0.8,0-1.4-0.6-1.4-1.4c0-0.8,0.6-1.4,1.4-1.4
				c0.8,0,1.4,0.6,1.4,1.4C40.6,33.7,40,34.3,39.2,34.3z"/>
			<path class="st1" d="M39.2,32.2c-0.4,0-0.7,0.3-0.7,0.7c0,0.4,0.3,0.7,0.7,0.7c0.4,0,0.7-0.3,0.7-0.7
				C39.9,32.5,39.6,32.2,39.2,32.2z"/>
			<path class="st1" d="M11.4,27.4c-0.8,0-1.5,0.7-1.5,1.5c0,0.8,0.7,1.5,1.5,1.5s1.5-0.7,1.5-1.5C12.9,28.1,12.2,27.4,11.4,27.4z
				 M11.4,29.7L11.4,29.7c0.4,0,0.8-0.4,0.8-0.8c0-0.4-0.4-0.8-0.8-0.8h0c0.4,0,0.8,0.4,0.8,0.8C12.2,29.4,11.8,29.7,11.4,29.7z"/>
			<path class="st1" d="M17.6,15.4c0.4,0,0.8-0.2,1.1-0.4c0.6-0.6,0.6-1.5,0-2.1c-0.3-0.3-0.7-0.4-1.1-0.4c-0.4,0-0.8,0.2-1.1,0.4
				c-0.3,0.3-0.4,0.7-0.4,1.1c0,0.4,0.2,0.8,0.4,1.1C16.8,15.3,17.2,15.4,17.6,15.4z M18.2,13.3c0.3,0.3,0.3,0.8,0,1.1
				c-0.2,0.2-0.4,0.2-0.6,0.2h0c0.2,0,0.4-0.1,0.6-0.2C18.5,14.2,18.5,13.7,18.2,13.3c-0.2-0.2-0.4-0.2-0.6-0.2h0
				C17.8,13.1,18,13.2,18.2,13.3z"/>
			<path class="st1" d="M32.6,9.2c0.8,0,1.5-0.7,1.5-1.5s-0.7-1.5-1.5-1.5c-0.8,0-1.5,0.7-1.5,1.5C31.1,8.5,31.8,9.2,32.6,9.2z
				 M33.4,7.7c0,0.4-0.4,0.8-0.8,0.8h0C33.1,8.5,33.4,8.1,33.4,7.7c0-0.4-0.4-0.8-0.8-0.8h0C33.1,6.9,33.4,7.3,33.4,7.7z"/>
		</g>
	</g>
</g>
</svg>
